<?xml version="1.0" encoding="UTF-8"?>
<svg width="48px" height="25px" viewBox="0 0 48 25" version="1.1" xmlns="http://www.w3.org/2000/svg" xmlns:xlink="http://www.w3.org/1999/xlink">
    <!-- Generator: Sketch 49.2 (51160) - http://www.bohemiancoding.com/sketch -->
    <title>pxo-logo</title>
    <desc>Created with Sketch.</desc>
    <defs></defs>
    <g id="pxo-logo" stroke="none" stroke-width="1" fill="none" fill-rule="evenodd">
        <path d="M18.6838235,2.52941176 L29.7647059,19.0882353" id="Shape" stroke="#FFFFFF"></path>
        <path d="M29.6838235,2.52941176 L18.6029412,19.0882353" id="Shape" stroke="#FFFFFF"></path>
        <path d="M41.2058824,3.10294118 C45.0032905,4.12970315 47.4532771,7.80992265 46.9353884,11.7094534 C46.4174998,15.6089841 43.0918585,18.5221543 39.1580882,18.5221543 C35.224318,18.5221543 31.8986767,15.6089841 31.380788,11.7094534 C30.8628993,7.80992265 33.312886,4.12970315 37.1102941,3.10294118" id="Shape" stroke="#FFFFFF"></path>
        <path d="M3.88235294,16.6544118 C5.32122668,18.0143709 7.22602214,18.7720796 9.20588235,18.7720588 C11.3035651,18.7565217 13.3090413,17.9077831 14.7805985,16.4127802 C16.2521558,14.9177774 17.0690906,12.8991369 17.0514706,10.8014706 C17.0671297,8.70507288 16.2493268,6.68832377 14.7779811,5.19491478 C13.3066354,3.7015058 11.3022809,2.85377835 9.20588235,2.83823529 C4.84322576,2.87463919 1.33502776,6.43878406 1.36764706,10.8014706 L1.36764706,24.4852941" id="Shape" stroke="#FFFFFF"></path>
        <path d="M39.1176471,0 L39.1176471,11.3676471" id="Shape" stroke="#FFFFFF" fill="#000000" fill-rule="nonzero"></path>
    </g>
</svg>
